mtllib star.mtl
g Star 2

# Vertex Positions:
v 0.16594 13.59669 3.61995
v -5.18304 15.45887 -0.42934
v -14.89337 12.38363 0.76365
v -4.98466 9.74664 0.9507
v -7.01083 0 3.41383
v 0.19838 7.00398 1.38007
v 7.88253 0.33274 2.65016
v 5.18304 9.97387 0.42933
v 14.89337 13.04911 -0.76367
v 4.98466 15.68603 -0.9507
v 7.01083 25.43274 -3.41384
v -0.19838 18.4286 -1.38005
v -7.88253 25.09991 -2.65016
v -0.16595 11.83597 -3.61996

# Vertex Texture Coordinates:
vt 0.32653 0.28292 
vt 0.19664 0.35791 
vt 0.00098 0.28292 
vt 0.19664 0.20792 
vt 0.16375 0.00098 
vt 0.32653 0.13293 
vt 0.4893 0.00098 
vt 0.45641 0.20792 
vt 0.65208 0.28292 
vt 0.45641 0.35791 
vt 0.4893 0.56486 
vt 0.32653 0.4329 
vt 0.16375 0.56485 
vt 0.61934 0.79208 
vt 0.48946 0.71708 
vt 0.81501 0.71708 
vt 0.61934 0.64209 
vt 0.65223 0.43514 
vt 0.48946 0.56709 
vt 0.32668 0.43514 
vt 0.35957 0.64209 
vt 0.16391 0.71708 
vt 0.35957 0.79208 
vt 0.32668 0.99902 
vt 0.48946 0.86707 
vt 0.65223 0.99902 

# Vertex Surface Normals:
vn -0.11787 0.52654 0.39785
vn -0.11787 0.52654 0.39785
vn -0.11787 0.52654 0.39785
vn -0.08939 -0.29362 0.596
vn -0.08939 -0.29362 0.596
vn -0.08939 -0.29362 0.596
vn -0.40902 0.20849 0.48853
vn -0.40902 0.20849 0.48853
vn -0.40902 0.20849 0.48853
vn 0.33522 -0.18528 0.5502
vn 0.33522 -0.18528 0.5502
vn 0.33522 -0.18528 0.5502
vn -0.26863 -0.19877 0.58116
vn -0.26863 -0.19877 0.58116
vn -0.26863 -0.19877 0.58116
vn 0.44712 0.22762 0.44463
vn 0.44712 0.22762 0.44463
vn 0.44712 0.22762 0.44463
vn 0.16284 -0.28799 0.58307
vn 0.16284 -0.28799 0.58307
vn 0.16284 -0.28799 0.58307
vn 0.13436 0.53218 0.38492
vn 0.13436 0.53218 0.38492
vn 0.13436 0.53218 0.38492
vn 0.45399 0.03005 0.49236
vn 0.45399 0.03005 0.49236
vn 0.45399 0.03005 0.49236
vn -0.29026 0.42384 0.43074
vn -0.29026 0.42384 0.43074
vn -0.29026 0.42384 0.43074
vn 0.31361 0.43733 0.39978
vn 0.31361 0.43733 0.39978
vn 0.31361 0.43733 0.39978
vn -0.40216 0.01092 0.53626
vn -0.40216 0.01092 0.53626
vn -0.40216 0.01092 0.53626
vn -0.16284 0.28799 -0.58307
vn -0.16284 0.28799 -0.58307
vn -0.16284 0.28799 -0.58307
vn -0.13436 -0.53217 -0.38492
vn -0.13436 -0.53217 -0.38492
vn -0.13436 -0.53217 -0.38492
vn -0.45399 -0.03005 -0.49236
vn -0.45399 -0.03005 -0.49236
vn -0.45399 -0.03005 -0.49236
vn 0.29026 -0.42384 -0.43074
vn 0.29026 -0.42384 -0.43074
vn 0.29026 -0.42384 -0.43074
vn -0.3136 -0.43733 -0.39978
vn -0.3136 -0.43733 -0.39978
vn -0.3136 -0.43733 -0.39978
vn 0.40216 -0.01092 -0.53626
vn 0.40216 -0.01092 -0.53626
vn 0.40216 -0.01092 -0.53626
vn 0.11788 -0.52654 -0.39785
vn 0.11788 -0.52654 -0.39785
vn 0.11788 -0.52654 -0.39785
vn 0.08939 0.29363 -0.596
vn 0.08939 0.29363 -0.596
vn 0.08939 0.29363 -0.596
vn 0.40902 -0.20849 -0.48853
vn 0.40902 -0.20849 -0.48853
vn 0.40902 -0.20849 -0.48853
vn -0.33523 0.18528 -0.5502
vn -0.33523 0.18528 -0.5502
vn -0.33523 0.18528 -0.5502
vn 0.26864 0.19878 -0.58116
vn 0.26864 0.19878 -0.58116
vn 0.26864 0.19878 -0.58116
vn -0.44713 -0.22762 -0.44463
vn -0.44713 -0.22762 -0.44463
vn -0.44713 -0.22762 -0.44463

# Faces:
usemtl Rainbow Anodized Metal
f 1/1/1 2/2/2 3/3/3
f 4/4/4 1/1/5 3/3/6
f 5/5/7 1/1/8 4/4/9
f 6/6/10 1/1/11 5/5/12
f 7/7/13 1/1/14 6/6/15
f 1/1/16 7/7/17 8/8/18
f 9/9/19 1/1/20 8/8/21
f 1/1/22 9/9/23 10/10/24
f 11/11/25 1/1/26 10/10/27
f 1/1/28 11/11/29 12/12/30
f 13/13/31 1/1/32 12/12/33
f 1/1/34 13/13/35 2/2/36
f 2/14/37 14/15/38 3/16/39
f 14/15/40 4/17/41 3/16/42
f 14/15/43 5/18/44 4/17/45
f 14/15/46 6/19/47 5/18/48
f 14/15/49 7/20/50 6/19/51
f 7/20/52 14/15/53 8/21/54
f 14/15/55 9/22/56 8/21/57
f 9/22/58 14/15/59 10/23/60
f 14/15/61 11/24/62 10/23/63
f 11/24/64 14/15/65 12/25/66
f 14/15/67 13/26/68 12/25/69
f 13/26/70 14/15/71 2/14/72
